<svg width="72" height="72" xmlns="http://www.w3.org/2000/svg">

 <g>
  <title>background</title>
  <rect fill="none" id="canvas_background" height="402" width="582" y="-1" x="-1"/>
 </g>
 <g>
  <title>Layer 1</title>
  <path id="svg_2" fill="#bdd1df" d="m36,72l0,0c19.882252,0 36,-16.117748 36,-36l0,0c0,-19.88225 -16.117748,-36 -36,-36l0,0c-19.88225,0 -36,16.11775 -36,36l0,0c0,19.882252 16.11775,36 36,36z"/>
  <path id="svg_3" fill="#FFF" d="m18,26.162319l0,20.385292c0,1.109039 0.811741,2.00787 1.930071,2.00787l31.814699,0c1.117161,0 1.930069,-0.90929 1.930069,-2.00787l0,-20.385292c0,-1.21703 -0.726971,-2.162319 -1.930069,-2.162319l-31.814699,0c-1.249552,0 -1.930071,0.968519 -1.930071,2.162319m2.93342,1.77561c0,-0.491219 0.297289,-0.772249 0.772261,-0.772249c0.293798,0 11.85445,7.32542 12.55471,7.755089l1.809288,1.125301c0.573681,-0.384392 1.149681,-0.713039 1.744251,-1.111359c1.213551,-0.775742 12.01123,-7.769032 12.308521,-7.769032c0.476128,0 0.772259,0.281031 0.772259,0.772249c0,0.520262 -1.00219,1.037041 -1.654842,1.43536c-4.100517,2.499102 -8.199867,5.22349 -12.259739,7.815481c-0.2369,0.160259 -0.69561,0.502838 -1.03936,0.450581c-0.383221,-0.059219 -12.147089,-7.616901 -14.28735,-8.87574c-0.32168,-0.189291 -0.719999,-0.36232 -0.719999,-0.825682"/>
 </g>
</svg>